<svg width="20" height="20" viewBox="0 0 20 20" fill="none" xmlns="http://www.w3.org/2000/svg">
<path d="M16 2H4C3.46957 2 2.96086 2.21071 2.58579 2.58579C2.21071 2.96086 2 3.46957 2 4L2 16C2 16.5304 2.21071 17.0391 2.58579 17.4142C2.96086 17.7893 3.46957 18 4 18H16C16.5304 18 17.0391 17.7893 17.4142 17.4142C17.7893 17.0391 18 16.5304 18 16V4C18 3.46957 17.7893 2.96086 17.4142 2.58579C17.0391 2.21071 16.5304 2 16 2ZM3 5.857C3 5.384 3.448 5 4 5H16C16.552 5 17 5.384 17 5.857V16.143C17 16.616 16.552 17 16 17H4C3.448 17 3 16.616 3 16.143V5.857Z" fill="#222222" fill-opacity="0.4"/>
<path d="M8.5 9C8.76522 9 9.01957 8.89464 9.20711 8.70711C9.39464 8.51957 9.5 8.26522 9.5 8C9.5 7.73478 9.39464 7.48043 9.20711 7.29289C9.01957 7.10536 8.76522 7 8.5 7C8.23478 7 7.98043 7.10536 7.79289 7.29289C7.60536 7.48043 7.5 7.73478 7.5 8C7.5 8.26522 7.60536 8.51957 7.79289 8.70711C7.98043 8.89464 8.23478 9 8.5 9ZM11.5 9C11.7652 9 12.0196 8.89464 12.2071 8.70711C12.3946 8.51957 12.5 8.26522 12.5 8C12.5 7.73478 12.3946 7.48043 12.2071 7.29289C12.0196 7.10536 11.7652 7 11.5 7C11.2348 7 10.9804 7.10536 10.7929 7.29289C10.6054 7.48043 10.5 7.73478 10.5 8C10.5 8.26522 10.6054 8.51957 10.7929 8.70711C10.9804 8.89464 11.2348 9 11.5 9ZM14.5 9C14.7652 9 15.0196 8.89464 15.2071 8.70711C15.3946 8.51957 15.5 8.26522 15.5 8C15.5 7.73478 15.3946 7.48043 15.2071 7.29289C15.0196 7.10536 14.7652 7 14.5 7C14.2348 7 13.9804 7.10536 13.7929 7.29289C13.6054 7.48043 13.5 7.73478 13.5 8C13.5 8.26522 13.6054 8.51957 13.7929 8.70711C13.9804 8.89464 14.2348 9 14.5 9ZM5.5 12C5.76522 12 6.01957 11.8946 6.20711 11.7071C6.39464 11.5196 6.5 11.2652 6.5 11C6.5 10.7348 6.39464 10.4804 6.20711 10.2929C6.01957 10.1054 5.76522 10 5.5 10C5.23478 10 4.98043 10.1054 4.79289 10.2929C4.60536 10.4804 4.5 10.7348 4.5 11C4.5 11.2652 4.60536 11.5196 4.79289 11.7071C4.98043 11.8946 5.23478 12 5.5 12ZM8.5 12C8.76522 12 9.01957 11.8946 9.20711 11.7071C9.39464 11.5196 9.5 11.2652 9.5 11C9.5 10.7348 9.39464 10.4804 9.20711 10.2929C9.01957 10.1054 8.76522 10 8.5 10C8.23478 10 7.98043 10.1054 7.79289 10.2929C7.60536 10.4804 7.5 10.7348 7.5 11C7.5 11.2652 7.60536 11.5196 7.79289 11.7071C7.98043 11.8946 8.23478 12 8.5 12ZM11.5 12C11.7652 12 12.0196 11.8946 12.2071 11.7071C12.3946 11.5196 12.5 11.2652 12.5 11C12.5 10.7348 12.3946 10.4804 12.2071 10.2929C12.0196 10.1054 11.7652 10 11.5 10C11.2348 10 10.9804 10.1054 10.7929 10.2929C10.6054 10.4804 10.5 10.7348 10.5 11C10.5 11.2652 10.6054 11.5196 10.7929 11.7071C10.9804 11.8946 11.2348 12 11.5 12ZM14.5 12C14.7652 12 15.0196 11.8946 15.2071 11.7071C15.3946 11.5196 15.5 11.2652 15.5 11C15.5 10.7348 15.3946 10.4804 15.2071 10.2929C15.0196 10.1054 14.7652 10 14.5 10C14.2348 10 13.9804 10.1054 13.7929 10.2929C13.6054 10.4804 13.5 10.7348 13.5 11C13.5 11.2652 13.6054 11.5196 13.7929 11.7071C13.9804 11.8946 14.2348 12 14.5 12ZM5.5 15C5.76522 15 6.01957 14.8946 6.20711 14.7071C6.39464 14.5196 6.5 14.2652 6.5 14C6.5 13.7348 6.39464 13.4804 6.20711 13.2929C6.01957 13.1054 5.76522 13 5.5 13C5.23478 13 4.98043 13.1054 4.79289 13.2929C4.60536 13.4804 4.5 13.7348 4.5 14C4.5 14.2652 4.60536 14.5196 4.79289 14.7071C4.98043 14.8946 5.23478 15 5.5 15ZM8.5 15C8.76522 15 9.01957 14.8946 9.20711 14.7071C9.39464 14.5196 9.5 14.2652 9.5 14C9.5 13.7348 9.39464 13.4804 9.20711 13.2929C9.01957 13.1054 8.76522 13 8.5 13C8.23478 13 7.98043 13.1054 7.79289 13.2929C7.60536 13.4804 7.5 13.7348 7.5 14C7.5 14.2652 7.60536 14.5196 7.79289 14.7071C7.98043 14.8946 8.23478 15 8.5 15ZM11.5 15C11.7652 15 12.0196 14.8946 12.2071 14.7071C12.3946 14.5196 12.5 14.2652 12.5 14C12.5 13.7348 12.3946 13.4804 12.2071 13.2929C12.0196 13.1054 11.7652 13 11.5 13C11.2348 13 10.9804 13.1054 10.7929 13.2929C10.6054 13.4804 10.5 13.7348 10.5 14C10.5 14.2652 10.6054 14.5196 10.7929 14.7071C10.9804 14.8946 11.2348 15 11.5 15Z" fill="#222222" fill-opacity="0.4"/>
</svg>
