<svg width="24" height="24" viewBox="0 0 24 24" fill="none" xmlns="http://www.w3.org/2000/svg">
<path d="M6.25152 6.25176C6.33112 6.17196 6.42569 6.10864 6.5298 6.06544C6.63391 6.02224 6.74552 6 6.85824 6C6.97096 6 7.08258 6.02224 7.18669 6.06544C7.2908 6.10864 7.38536 6.17196 7.46497 6.25176L12 10.7885L16.535 6.25176C16.6147 6.17209 16.7093 6.10888 16.8134 6.06576C16.9175 6.02264 17.029 6.00045 17.1417 6.00045C17.2544 6.00045 17.366 6.02264 17.4701 6.06576C17.5742 6.10888 17.6688 6.17209 17.7484 6.25176C17.8281 6.33144 17.8913 6.42603 17.9344 6.53013C17.9776 6.63423 17.9998 6.74581 17.9998 6.85849C17.9998 6.97117 17.9776 7.08274 17.9344 7.18685C17.8913 7.29095 17.8281 7.38554 17.7484 7.46521L13.2117 12.0002L17.7484 16.5352C17.8281 16.6149 17.8913 16.7095 17.9344 16.8136C17.9776 16.9177 17.9998 17.0293 17.9998 17.142C17.9998 17.2546 17.9776 17.3662 17.9344 17.4703C17.8913 17.5744 17.8281 17.669 17.7484 17.7487C17.6688 17.8284 17.5742 17.8916 17.4701 17.9347C17.366 17.9778 17.2544 18 17.1417 18C17.029 18 16.9175 17.9778 16.8134 17.9347C16.7093 17.8916 16.6147 17.8284 16.535 17.7487L12 13.212L7.46497 17.7487C7.38529 17.8284 7.2907 17.8916 7.1866 17.9347C7.0825 17.9778 6.97092 18 6.85824 18C6.74556 18 6.63399 17.9778 6.52989 17.9347C6.42578 17.8916 6.33119 17.8284 6.25152 17.7487C6.17184 17.669 6.10864 17.5744 6.06552 17.4703C6.0224 17.3662 6.0002 17.2546 6.0002 17.142C6.0002 17.0293 6.0224 16.9177 6.06552 16.8136C6.10864 16.7095 6.17184 16.6149 6.25152 16.5352L10.7882 12.0002L6.25152 7.46521C6.17171 7.38561 6.1084 7.29104 6.06519 7.18693C6.02199 7.08282 5.99976 6.97121 5.99976 6.85849C5.99976 6.74577 6.02199 6.63416 6.06519 6.53004C6.1084 6.42593 6.17171 6.33137 6.25152 6.25176Z" fill="#005AAA"/>
</svg>
